<svg aria-hidden="true" style="position: absolute; width: 0; height: 0; overflow: hidden;" version="1.1" xmlns="http://www.w3.org/2000/svg" xmlns:xlink="http://www.w3.org/1999/xlink">
<defs>
<symbol id="icon-search" viewBox="0 0 32 32">
<path d="M21.388 21.141c-0.045 0.035-0.089 0.073-0.132 0.116s-0.080 0.085-0.116 0.132c-1.677 1.617-3.959 2.611-6.473 2.611-2.577 0-4.909-1.043-6.6-2.733s-2.733-4.023-2.733-6.6 1.043-4.909 2.733-6.6 4.023-2.733 6.6-2.733 4.909 1.043 6.6 2.733 2.733 4.023 2.733 6.6c0 2.515-0.993 4.796-2.612 6.475zM28.943 27.057l-4.9-4.9c1.641-2.053 2.624-4.657 2.624-7.491 0-3.313-1.344-6.315-3.515-8.485s-5.172-3.515-8.485-3.515-6.315 1.344-8.485 3.515-3.515 5.172-3.515 8.485 1.344 6.315 3.515 8.485 5.172 3.515 8.485 3.515c2.833 0 5.437-0.983 7.491-2.624l4.9 4.9c0.521 0.521 1.365 0.521 1.885 0s0.521-1.365 0-1.885z"></path>
</symbol>
<symbol id="icon-burger" viewBox="0 0 32 32">
<path d="M0 4.8h32v3.2h-32v-3.2zM0 14.4h32v3.2h-32v-3.2zM0 24h32v3.2h-32v-3.2z"></path>
</symbol>
<symbol id="icon-bag" viewBox="0 0 32 32">
<path d="M28.784 27.734l-1.841-20.753c-0.033-0.411-0.378-0.722-0.795-0.722h-3.882c-0.007-3.451-2.815-6.26-6.266-6.26s-6.26 2.809-6.266 6.26h-3.882c-0.411 0-0.755 0.311-0.795 0.722l-1.841 20.753c0 0.026 0 0.046 0 0.073 0 2.312 2.126 4.193 4.736 4.193h16.096c2.61 0 4.736-1.881 4.736-4.193 0-0.026 0-0.046 0-0.073zM16 1.59c2.577 0 4.67 2.093 4.676 4.67h-9.353c0.007-2.577 2.1-4.67 4.676-4.67zM24.048 30.404h-16.096c-1.722 0-3.126-1.146-3.146-2.57l1.775-19.984h3.153v2.789c0 0.437 0.358 0.795 0.795 0.795s0.795-0.358 0.795-0.795v-2.789h9.353v2.789c0 0.437 0.358 0.795 0.795 0.795s0.795-0.358 0.795-0.795v-2.789h3.153l1.775 19.991c-0.020 1.418-1.424 2.563-3.146 2.563z"></path>
</symbol>
<symbol id="icon-heart" viewBox="0 0 32 32">
<path d="M29.714 10.643c0-5.018-3.393-6.071-6.25-6.071-2.661 0-5.661 2.875-6.589 3.982-0.429 0.518-1.321 0.518-1.75 0-0.929-1.107-3.929-3.982-6.589-3.982-2.857 0-6.25 1.054-6.25 6.071 0 3.268 3.304 6.304 3.339 6.339l10.375 10 10.357-9.982c0.054-0.054 3.357-3.089 3.357-6.357zM32 10.643c0 4.286-3.929 7.875-4.089 8.036l-11.125 10.714c-0.214 0.214-0.5 0.321-0.786 0.321s-0.571-0.107-0.786-0.321l-11.143-10.75c-0.143-0.125-4.071-3.714-4.071-8 0-5.232 3.196-8.357 8.536-8.357 3.125 0 6.054 2.464 7.464 3.857 1.411-1.393 4.339-3.857 7.464-3.857 5.339 0 8.536 3.125 8.536 8.357z"></path>
</symbol>
<symbol id="icon-close" viewBox="0 0 32 32">
<path d="M.371 2.165A1.268 1.268 0 0 1 2.164.372l13.835 13.835L29.834.372a1.27 1.27 0 0 1 1.794 1.793L17.792 16l13.835 13.835a1.268 1.268 0 1 1-1.794 1.793L15.998 17.793 2.163 31.628A1.268 1.268 0 0 1 .37 29.835L14.205 16 .37 2.165z"/>
</symbol>
<symbol id="icon-user" viewBox="0 0 32 32">
<path d="M18 22.082v-1.649c2.203-1.241 4-4.337 4-7.432 0-4.971 0-9-6-9s-6 4.029-6 9c0 3.096 1.797 6.191 4 7.432v1.649c-6.784 0.555-12 3.888-12 7.918h28c0-4.030-5.216-7.364-12-7.918z"></path>
</symbol>
<symbol id="icon-phone" viewBox="0 0 32 32">
<path d="M2.126 1.188c1.278-1.281 5.141-1.495 5.17-0.817 0.029 0.677 3.479 8.191 3.509 8.869s-2.274 2.987-2.948 3.663c-0.668 0.669 4.508 6.533 4.606 6.644 0.11 0.099 5.96 5.287 6.628 4.617 0.674-0.676 2.979-2.985 3.653-2.955 0.676 0.029 8.173 3.487 8.849 3.518 0.676 0.029 0.463 3.9-0.815 5.182-1.093 1.095-6.752 5.071-16.592-2.029-1.079-0.622-2.788-2.049-5.38-4.646-0.001-0.001-0.003-0.003-0.005-0.004-0.002-0.003-0.004-0.004-0.006-0.006s-0.004-0.004-0.006-0.006c-0.001-0.002-0.003-0.004-0.004-0.005-2.59-2.598-4.014-4.312-4.635-5.393-7.083-9.864-3.116-15.537-2.024-16.632z"></path>
</symbol>
<symbol id="icon-telegram" viewBox="0 0 32 32">
<path d="M28.205 4.395c-0.271 0.012-0.542 0.084-0.79 0.18h-0.001c-0.242 0.094-1.794 0.737-4.057 1.677s-5.204 2.162-8.12 3.374c-5.832 2.425-11.563 4.811-11.563 4.811l0.026-0.009c0 0-0.32 0.105-0.64 0.321-0.16 0.108-0.328 0.246-0.461 0.438s-0.226 0.455-0.191 0.737c0.065 0.509 0.411 0.842 0.698 1.041s0.561 0.295 0.561 0.295l0.003 0.002 5.605 1.853c0.092 0.321 1.591 5.538 1.944 6.64 0.185 0.577 0.356 0.897 0.516 1.098 0.080 0.101 0.159 0.172 0.238 0.221 0.034 0.021 0.068 0.035 0.101 0.048 0.005 0.002 0.011 0.006 0.016 0.008 0.011 0.004 0.017 0.004 0.031 0.007 0.528 0.195 0.974-0.145 0.974-0.145l0.012-0.009 3.843-3.381 5.684 4.558 0.050 0.022c0.912 0.393 1.666 0.177 2.104-0.169s0.616-0.798 0.616-0.798l0.014-0.035 4.1-20.738c0.1-0.444 0.111-0.816 0.023-1.136s-0.29-0.58-0.541-0.726c-0.252-0.146-0.524-0.195-0.795-0.183zM28.227 5.209c0.159-0.007 0.293 0.015 0.373 0.061s0.131 0.099 0.17 0.244c0.040 0.145 0.049 0.39-0.032 0.748l-0.002 0.005-4.084 20.658c-0.006 0.014-0.111 0.261-0.36 0.458-0.251 0.198-0.593 0.345-1.261 0.068l-9.136-7.327c-0.073-0.077-0.176-0.124-0.29-0.124-0.002 0-0.004 0-0.006 0h0c-0.001-0-0.003-0-0.005-0-0.217 0-0.394 0.173-0.4 0.389v0.001l-1.041 5.58c-0.053-0.123-0.111-0.267-0.173-0.46-0.322-1.005-1.772-6.039-1.915-6.535l14.339-9.284c0.043 0.179 0.201 0.309 0.39 0.309 0.002 0 0.003 0 0.005-0h-0c0.001 0 0.003 0 0.005 0 0.221 0 0.4-0.179 0.4-0.4 0-0.031-0.003-0.061-0.010-0.089l0.001 0.003c0.011-0.122 0-0.243-0.053-0.363-0.086-0.193-0.291-0.311-0.436-0.338-0.29-0.055-0.48 0.051-0.48 0.051l-0.040 0.015-14.644 9.482-5.614-1.856c-0.002-0-0.178-0.064-0.366-0.195s-0.338-0.303-0.362-0.486c-0.008-0.064 0.004-0.107 0.055-0.18s0.144-0.159 0.251-0.231c0.213-0.144 0.448-0.226 0.448-0.226l0.013-0.005 0.013-0.005c0 0 5.73-2.386 11.563-4.811 2.916-1.213 5.858-2.434 8.12-3.373s3.878-1.607 4.041-1.67c0.178-0.069 0.363-0.105 0.522-0.112zM23.68 10.28l-0.32 0.161-0.063 0.353 0.245 0.262 0.138 0.024 0.32-0.16 0.063-0.353-0.245-0.262-0.139-0.025zM22.56 11.36l-0.32 0.16-0.063 0.353 0.245 0.262 0.139 0.025 0.32-0.161 0.063-0.352-0.245-0.262-0.138-0.025zM21.44 12.44l-0.32 0.161-0.063 0.352 0.245 0.262 0.139 0.025 0.32-0.16 0.063-0.353-0.245-0.262-0.139-0.025zM20.32 13.52l-0.321 0.16-0.063 0.353 0.245 0.262 0.139 0.025 0.32-0.161 0.063-0.352-0.245-0.262-0.138-0.024zM19.2 14.6l-0.32 0.161-0.063 0.352 0.245 0.262 0.139 0.025 0.32-0.16 0.063-0.353-0.245-0.262-0.139-0.025zM18.080 15.68l-0.32 0.161-0.063 0.353 0.245 0.262 0.138 0.024 0.321-0.16 0.063-0.353-0.245-0.262-0.139-0.025zM16.96 16.76l-0.32 0.16-0.063 0.353 0.245 0.262 0.139 0.025 0.32-0.161 0.063-0.352-0.245-0.262-0.138-0.025zM15.84 17.84l-0.32 0.161-0.063 0.352 0.245 0.262 0.138 0.025 0.32-0.16 0.063-0.353-0.245-0.262-0.139-0.025zM14.72 18.92l-0.321 0.16-0.063 0.353 0.245 0.262 0.139 0.025 0.32-0.161 0.063-0.353-0.245-0.262-0.138-0.024zM13.87 21.13l2.448 1.962-3.366 2.961 0.919-4.923z"></path>
</symbol>
<symbol id="icon-viber" viewBox="0 0 32 32">
<path d="M15.486 1.002c-0.871 0.010-1.721 0.066-2.557 0.168-2.1 0.256-3.684 0.666-5.135 1.33-2.91 1.328-4.658 3.486-5.193 6.414-0.248 1.348-0.416 2.574-0.512 3.75-0.227 2.729-0.022 5.146 0.629 7.393 0.652 2.258 1.801 3.875 3.49 4.93 1.1 0.758 2.285 1.018 2.922 1.154 0.027 0.008 0.055 0.014 0.084 0.020-0.109 1.594-0.764 4.611-0.77 4.645-0.041 0.184 0.027 0.377 0.174 0.494 0.092 0.074 0.201 0.111 0.313 0.111 0.072 0 0.143-0.016 0.209-0.045 0.131-0.061 3.197-1.49 5.469-4.242l0.141-0.156c0.012-0.012 0.021-0.021 0.029-0.031 1.344-0.027 2.73-0.080 4.125-0.154 1.721-0.094 3.719-0.26 5.625-1.053 1.793-0.744 3.104-1.93 3.893-3.525 0.797-1.604 1.268-3.338 1.445-5.303 0.305-3.402 0.086-6.361-0.67-9.043-0.533-1.896-1.594-3.4-3.15-4.465-1.92-1.316-4.104-1.779-5.986-2.059-1.607-0.238-3.121-0.35-4.574-0.332zM15.775 2c1.316 0 2.688 0.107 4.139 0.324 1.77 0.262 3.814 0.693 5.57 1.895 1.357 0.93 2.283 2.244 2.752 3.91 0.721 2.563 0.93 5.402 0.635 8.684-0.143 1.578-0.5 2.988-1.064 4.303-0.084-0.068-0.189-0.115-0.307-0.115-0.275 0-0.5 0.223-0.5 0.5v1c0 0.033 0.012 0.063 0.018 0.094-0.688 0.959-1.646 1.703-2.873 2.211-1.76 0.732-3.656 0.887-5.295 0.977-1.395 0.074-2.785 0.127-4.131 0.154-0.365 0.006-0.486 0.107-0.717 0.369l-0.15 0.166c-1.402 1.699-3.162 2.881-4.213 3.494 0.234-1.193 0.578-3.104 0.59-4.141 0.006-0.465-0.428-0.561-0.887-0.66-0.609-0.133-1.629-0.354-2.584-1.012-0.691-0.432-1.273-0.977-1.762-1.629 0-0.010 0.004-0.016 0.004-0.023v-1c0-0.277-0.225-0.5-0.5-0.5-0.127 0-0.238 0.051-0.326 0.127-0.189-0.416-0.355-0.863-0.494-1.346-0.615-2.129-0.811-4.43-0.594-7.035 0.094-1.141 0.258-2.336 0.5-3.652 0.473-2.586 2.029-4.498 4.625-5.684 1.355-0.621 2.848-1.006 4.842-1.248 0.885-0.109 1.791-0.162 2.723-0.162zM17.746 4.977c-0.559 0-1.115 0.061-1.654 0.182-0.27 0.063-0.439 0.33-0.379 0.6s0.328 0.439 0.6 0.377c0.467-0.105 0.949-0.158 1.436-0.158 3.152 0 5.896 2.334 6.377 5.43 0.039 0.246 0.252 0.422 0.494 0.422 0.025 0 0.051 0 0.076-0.006 0.273-0.041 0.461-0.297 0.418-0.57-0.557-3.578-3.725-6.275-7.367-6.275zM10.83 6.756c-0.143-0.006-0.285 0.008-0.432 0.041-1.246 0.273-2.715 1.242-2.756 3.080 0 0.031 0.002 0.063 0.008 0.092 0.010 0.057 0.014 0.115 0.021 0.174 0.016 0.17 0.035 0.361 0.117 0.561 0.094 0.232 0.188 0.467 0.279 0.701 0.277 0.701 0.564 1.43 0.938 2.113 1.773 3.262 4.299 5.877 7.527 7.814-0.018 0.053-0.033 0.109-0.033 0.168v1c0 0.277 0.225 0.5 0.5 0.5s0.5-0.223 0.5-0.5v-0.619c0.662 0.354 1.346 0.684 2.063 0.986 0.369 0.154 0.734 0.234 1.090 0.234 0.316 0 0.625-0.064 0.924-0.188 0.893-0.371 1.574-0.932 2.025-1.664 0.51-0.83 0.914-1.914-0.494-2.943-0.234-0.172-0.467-0.344-0.701-0.518-0.385-0.285-0.773-0.572-1.166-0.852-0.699-0.494-1.396-0.688-2.014-0.557-0.566 0.117-1.039 0.486-1.4 1.088-0.014 0.014-0.027 0.029-0.043 0.043-0.002 0.002-0.037 0.039-0.041 0.043-0.221 0.232-0.449 0.285-0.738 0.166-1.795-0.734-3.035-1.869-3.793-3.469-0.395-0.832-0.326-1.096 0.42-1.654 0.104-0.078 0.205-0.16 0.299-0.246 0.578-0.523 0.721-1.213 0.391-1.896-0.578-1.199-1.352-2.262-2.297-3.158-0.359-0.344-0.768-0.525-1.193-0.541zM17.234 7.393c-0.303 0-0.613 0.027-0.92 0.076-0.273 0.047-0.459 0.303-0.414 0.576 0.047 0.271 0.303 0.457 0.576 0.41 0.254-0.041 0.508-0.063 0.758-0.063 2.51 0 4.553 2.031 4.553 4.523 0 0.252-0.021 0.506-0.063 0.756-0.047 0.273 0.139 0.529 0.41 0.576 0.029 0.004 0.057 0.008 0.084 0.008 0.238 0 0.451-0.174 0.492-0.42 0.051-0.303 0.076-0.613 0.076-0.918 0-3.045-2.49-5.525-5.553-5.525zM10.75 7.756c0.152-0.006 0.352 0.041 0.586 0.266 0.857 0.813 1.559 1.777 2.086 2.869 0.115 0.238 0.133 0.453-0.164 0.719-0.072 0.066-0.148 0.129-0.227 0.188-1.123 0.84-1.32 1.621-0.725 2.883 0.859 1.809 2.313 3.143 4.318 3.965 0.67 0.275 1.342 0.127 1.873-0.434 0.051-0.051 0.119-0.119 0.176-0.217 0.221-0.363 0.475-0.576 0.756-0.635 0.43-0.092 0.908 0.164 1.234 0.395 0.387 0.273 0.766 0.557 1.146 0.84 0.234 0.174 0.469 0.348 0.705 0.521 0.672 0.488 0.719 0.82 0.234 1.611-0.34 0.551-0.863 0.975-1.557 1.264-0.385 0.158-0.791 0.145-1.242-0.047-4.498-1.891-7.885-4.889-10.068-8.904-0.344-0.631-0.605-1.299-0.883-2.004-0.096-0.238-0.189-0.477-0.287-0.715-0.025-0.063-0.035-0.168-0.047-0.281-0.006-0.061-0.014-0.121-0.021-0.182 0.049-1.23 1.045-1.883 1.969-2.084 0.041-0.010 0.086-0.018 0.137-0.018zM16.643 9.813c-0.275 0-0.5 0.223-0.5 0.5 0 0.275 0.225 0.5 0.5 0.5 1.498 0 2.717 1.209 2.717 2.695 0 0.277 0.223 0.5 0.5 0.5 0.275 0 0.5-0.223 0.5-0.5 0-2.037-1.668-3.695-3.717-3.695zM24.719 12.406c-0.271-0.021-0.516 0.188-0.535 0.463-0.023 0.32-0.072 0.639-0.143 0.949-0.063 0.268 0.105 0.537 0.375 0.598 0.037 0.010 0.076 0.014 0.113 0.014 0.227 0 0.434-0.158 0.486-0.391 0.082-0.357 0.137-0.727 0.164-1.096 0.021-0.275-0.186-0.516-0.461-0.537zM7 21c-0.275 0-0.5 0.223-0.5 0.5v1c0 0.277 0.225 0.5 0.5 0.5s0.5-0.223 0.5-0.5v-1c0-0.277-0.225-0.5-0.5-0.5zM9.5 21c-0.275 0-0.5 0.223-0.5 0.5v1c0 0.277 0.225 0.5 0.5 0.5s0.5-0.223 0.5-0.5v-1c0-0.277-0.225-0.5-0.5-0.5zM12 21c-0.275 0-0.5 0.223-0.5 0.5v1c0 0.277 0.225 0.5 0.5 0.5s0.5-0.223 0.5-0.5v-1c0-0.277-0.225-0.5-0.5-0.5zM14.5 21c-0.275 0-0.5 0.223-0.5 0.5v1c0 0.277 0.225 0.5 0.5 0.5s0.5-0.223 0.5-0.5v-1c0-0.277-0.225-0.5-0.5-0.5zM25 21c-0.275 0-0.5 0.223-0.5 0.5v1c0 0.277 0.225 0.5 0.5 0.5s0.5-0.223 0.5-0.5v-1c0-0.277-0.225-0.5-0.5-0.5z"></path>
</symbol>
<symbol id="icon-info" viewBox="0 0 32 32">
<path d="M16 1.28c-8.122 0-14.72 6.598-14.72 14.72s6.598 14.72 14.72 14.72c8.122 0 14.72-6.598 14.72-14.72s-6.598-14.72-14.72-14.72zM16 2.56c7.43 0 13.44 6.010 13.44 13.44s-6.010 13.44-13.44 13.44c-7.43 0-13.44-6.010-13.44-13.44s6.010-13.44 13.44-13.44zM16 7.040c-1.060 0-1.92 0.86-1.92 1.92v0c0 1.060 0.86 1.92 1.92 1.92v0c1.060 0 1.92-0.86 1.92-1.92v0c0-1.060-0.86-1.92-1.92-1.92v0zM13.44 13.44v1.28h1.28v8.32h-1.28v1.28h5.12v-1.28h-1.28v-9.6h-3.84z"></path>
</symbol>
<symbol id="icon-favorites" viewBox="0 0 37 32">
<path d="M27 0c-2.476 0-4.856 0.921-6.704 2.595-0.702 0.635-1.303 1.357-1.796 2.154-0.493-0.797-1.094-1.519-1.796-2.155-1.848-1.673-4.228-2.594-6.704-2.594-5.514 0-10 4.486-10 10 0 3.722 1.158 6.66 3.871 9.825 3.942 4.6 13.919 11.62 14.342 11.917 0.086 0.061 0.187 0.091 0.287 0.091s0.201-0.030 0.287-0.091c0.423-0.297 10.4-7.317 14.343-11.917 2.712-3.165 3.87-6.103 3.87-9.825 0-5.514-4.486-10-10-10zM32.371 19.175c-3.495 4.076-12.18 10.341-13.871 11.545-1.691-1.204-10.376-7.469-13.87-11.545-2.545-2.969-3.63-5.713-3.63-9.175 0-4.963 4.038-9 9-9 2.227 0 4.37 0.829 6.032 2.335 0.838 0.76 1.518 1.656 2.020 2.664 0.17 0.34 0.726 0.34 0.896 0 0.502-1.008 1.182-1.904 2.020-2.663 1.662-1.507 3.805-2.336 6.032-2.336 4.962 0 9 4.037 9 9 0 3.462-1.085 6.206-3.629 9.175z"></path>
</symbol>
<symbol id="icon-cross" viewBox="0 0 32 32">
<path d="M.371 2.165A1.268 1.268 0 0 1 2.164.372l13.835 13.835L29.834.372a1.27 1.27 0 0 1 1.794 1.793L17.792 16l13.835 13.835a1.268 1.268 0 1 1-1.794 1.793L15.998 17.793 2.163 31.628A1.268 1.268 0 0 1 .37 29.835L14.205 16 .37 2.165z"/>
</symbol>
<symbol id="icon-exclamation" viewBox="0 0 32 32">
<path d="M16 0c-8.837 0-16 7.163-16 16s7.163 16 16 16 16-7.163 16-16-7.163-16-16-16zM16 30c-7.72 0-14-6.28-14-14s6.28-14 14-14 14 6.28 14 14-6.28 14-14 14z"></path>
<path d="M17.426 18.742l0.546-11.24h-3.945l0.571 11.24z"></path>
<path d="M16.012 19.982c-1.315 0-2.232 0.942-2.232 2.258 0 1.289 0.893 2.258 2.232 2.258s2.209-0.968 2.209-2.258c-0.026-1.316-0.895-2.258-2.209-2.258z"></path>
</symbol>
<symbol id="icon-message" viewBox="0 0 32 32">
<path d="M26.667 2.667h-21.333c-1.471 0-2.667 1.192-2.667 2.656v16.021c0 1.464 1.196 2.656 2.667 2.656h4v5.333l8.468-5.333h8.865c1.471 0 2.667-1.192 2.667-2.656v-16.021c-0.005-1.468-1.195-2.656-2.664-2.656-0.001 0-0.002 0-0.003 0h0zM18.667 17.333h-9.333v-2.667h9.333v2.667zM22.667 12h-13.333v-2.667h13.333v2.667z"></path>
</symbol>
<symbol id="icon-check" viewBox="0 0 32 32">
<path d="M16 32c4.273 0 8.291-1.665 11.313-4.686s4.687-7.040 4.687-11.314-1.665-8.291-4.686-11.313c-3.022-3.022-7.040-4.687-11.314-4.687s-8.291 1.665-11.313 4.686c-3.022 3.022-4.687 7.040-4.687 11.313s1.665 8.292 4.686 11.313c3.022 3.023 7.040 4.687 11.313 4.687zM6.101 6.101c2.644-2.644 6.16-4.101 9.899-4.101s7.255 1.457 9.899 4.101c2.645 2.644 4.101 6.16 4.101 9.899s-1.456 7.255-4.101 9.899c-2.644 2.645-6.16 4.101-9.899 4.101s-7.255-1.456-9.899-4.101c-2.644-2.644-4.101-6.16-4.101-9.899s1.457-7.255 4.101-9.899z"></path>
<path d="M11.969 24c0.011 0 0.021 0 0.031 0 0.271 0 0.532-0.11 0.721-0.307l12.5-13c0.383-0.398 0.37-1.031-0.028-1.414s-1.031-0.37-1.414 0.028l-11.732 12.201-4.784-5.654c-0.357-0.422-0.988-0.475-1.41-0.117s-0.474 0.988-0.117 1.41l5.5 6.5c0.183 0.216 0.449 0.354 0.732 0.354z"></path>
</symbol>
<symbol id="icon-heart-empty" viewBox="0 0 28 28">
<path d="M26 9.312c0-4.391-2.969-5.313-5.469-5.313-2.328 0-4.953 2.516-5.766 3.484-0.375 0.453-1.156 0.453-1.531 0-0.812-0.969-3.437-3.484-5.766-3.484-2.5 0-5.469 0.922-5.469 5.313 0 2.859 2.891 5.516 2.922 5.547l9.078 8.75 9.063-8.734c0.047-0.047 2.938-2.703 2.938-5.563zM28 9.312c0 3.75-3.437 6.891-3.578 7.031l-9.734 9.375c-0.187 0.187-0.438 0.281-0.688 0.281s-0.5-0.094-0.688-0.281l-9.75-9.406c-0.125-0.109-3.563-3.25-3.563-7 0-4.578 2.797-7.313 7.469-7.313 2.734 0 5.297 2.156 6.531 3.375 1.234-1.219 3.797-3.375 6.531-3.375 4.672 0 7.469 2.734 7.469 7.313z"></path>
</symbol>
<symbol id="icon-heart-full" viewBox="0 0 28 28">
<path d="M14 26c-0.25 0-0.5-0.094-0.688-0.281l-9.75-9.406c-0.125-0.109-3.563-3.25-3.563-7 0-4.578 2.797-7.313 7.469-7.313 2.734 0 5.297 2.156 6.531 3.375 1.234-1.219 3.797-3.375 6.531-3.375 4.672 0 7.469 2.734 7.469 7.313 0 3.75-3.437 6.891-3.578 7.031l-9.734 9.375c-0.187 0.187-0.438 0.281-0.688 0.281z"></path>
</symbol>
</defs>
</svg>
